Coordinates
version=1
nRows=11
nColumns=40
inDegrees=yes

Units are S.I. units (second, meters, Newtons, ...)
If the header above contains a line with 'inDegrees', this indicates whether rotational values are in degrees (yes) or radians (no).

endheader
time	pelvis_tilt	pelvis_list	pelvis_rotation	pelvis_tx	pelvis_ty	pelvis_tz	hip_flexion_r	hip_adduction_r	hip_rotation_r	knee_angle_r	knee_angle_r_beta	ankle_angle_r	subtalar_angle_r	mtp_angle_r	hip_flexion_l	hip_adduction_l	hip_rotation_l	knee_angle_l	knee_angle_l_beta	ankle_angle_l	subtalar_angle_l	mtp_angle_l	lumbar_extension	lumbar_bending	lumbar_rotation	arm_flex_r	arm_add_r	arm_rot_r	elbow_flex_r	pro_sup_r	wrist_flex_r	wrist_dev_r	arm_flex_l	arm_add_l	arm_rot_l	elbow_flex_l	pro_sup_l	wrist_flex_l	wrist_dev_l
      0.51000000	     -0.50169809	      0.74105706	     -2.68322075	     -0.55950635	      0.81834557	      0.25925793	    -12.88785162	      1.93570333	      1.28088474	     17.08414413	      0.29817456	     11.79595180	      0.00000000	      0.00000000	     23.21308809	      0.64917487	     -7.05744821	      0.58001533	      0.01012318	      0.17909348	      0.00000000	      0.00000000	    -12.69598097	     -1.99147572	      8.02339939	      0.56312618	     -6.17141088	     -4.85364320	     47.13111599	     88.77259283	      3.54607378	     13.77536932	    -11.87941165	     -0.01096584	    -16.70886011	     44.54862558	     89.27021858	     -5.11260457	     12.06623410
      0.52000000	     -0.61425568	      0.64425745	     -2.79200349	     -0.54654854	      0.81677042	      0.25851232	    -13.01159351	      1.84092884	      1.40241754	     18.48604433	      0.32264234	     11.26128392	      0.00000000	      0.00000000	     23.53568586	      0.56936148	     -7.00725768	      0.52567378	      0.00917474	     -0.19031360	      0.00000000	      0.00000000	    -12.60676025	     -1.98917401	      8.22698131	      0.60475700	     -6.04446770	     -5.07830345	     47.36469923	     88.78397287	      3.34836923	     13.68390514	    -11.86410754	      0.21960312	    -17.19262190	     44.26582378	     89.26494164	     -5.83459448	     11.30059217
      0.53000000	     -0.48764627	      0.73061972	     -2.85824492	     -0.53282224	      0.81585203	      0.25735199	    -13.42613726	      1.48938846	      1.33227768	     19.82350919	      0.34598550	     10.27274618	      0.00000000	      0.00000000	     23.39405528	      0.74705384	     -6.81077443	      0.56409158	      0.00984526	     -0.44645327	      0.00000000	      0.00000000	    -12.65136752	     -2.11062824	      8.27470342	      0.66035468	     -5.92019547	     -5.21342248	     47.34732033	     88.77681234	      3.28341703	     13.63386730	    -11.90552468	      0.35599666	    -17.33159767	     43.89221582	     89.25991127	     -6.02699490	     11.15761630
      0.54000000	     -0.29409598	      0.91781375	     -2.97888734	     -0.51864047	      0.81527118	      0.25632679	    -13.80972394	      1.00673168	      1.23204920	     21.35388252	      0.37269556	      8.99272644	      0.00000000	      0.00000000	     23.06121837	      0.99864653	     -6.75141451	      0.79450781	      0.01386678	     -1.03731680	      0.00000000	      0.00000000	    -12.72664128	     -2.35852072	      8.33711049	      0.62095322	     -5.73327008	     -5.37902949	     47.34420936	     88.77138978	      3.20562216	     13.54541258	    -11.96150044	      0.46877928	    -17.51718858	     43.51136904	     89.25285865	     -6.23128116	     10.98916065
      0.55000000	      0.06650121	      1.40294816	     -3.29725906	     -0.50394782	      0.81529605	      0.25545708	    -14.26416064	      0.09694789	      1.02975413	     23.02053660	      0.40178416	      7.40579127	      0.00000000	      0.00000000	     22.45179798	      1.49328504	     -7.32907626	      1.25574258	      0.02191684	     -2.22214262	      0.00000000	      0.00000000	    -12.93255406	     -2.96632798	      8.60024208	      0.41575771	     -5.50647455	     -5.68539646	     47.38464230	     88.78048953	      2.98337015	     13.16638975	    -11.99706363	      0.57224813	    -17.54350448	     43.06203563	     89.24625689	     -6.79709333	     10.28477441
      0.56000000	      0.42163071	      1.74976537	     -3.35079514	     -0.48915905	      0.81542401	      0.25430805	    -14.62414452	     -0.57325969	      0.89986909	     24.83696301	      0.43348678	      5.56305211	      0.00000000	      0.00000000	     22.04878094	      1.89149564	     -7.12684047	      2.48892271	      0.04343990	     -2.70832748	      0.00000000	      0.00000000	    -13.10347674	     -3.37503622	      8.51771262	      0.29367328	     -5.25141668	     -5.81376919	     47.27456938	     88.75666294	      2.91692254	     13.06399010	    -12.04991846	      0.58305155	    -17.55110474	     42.60451361	     89.23492424	     -6.93022999	     10.19795682
      0.57000000	      0.80675634	      2.16807947	     -3.42046499	     -0.47406427	      0.81584696	      0.25310476	    -14.81197456	     -1.41955466	      0.30166984	     26.94971127	      0.47036119	      3.10374877	      0.00000000	      0.00000000	     21.67886477	      2.33995207	     -7.36443032	      4.15181128	      0.07246278	     -3.39060781	      0.00000000	      0.00000000	    -13.27788951	     -3.86613574	      8.38310835	      0.09567822	     -4.94785710	     -5.96618318	     47.19902796	     88.74394432	      2.83768136	     12.89127952	    -12.14061281	      0.58009428	    -17.48438683	     42.19158262	     89.23742008	     -7.06552760	     10.07899537
      0.58000000	      1.18880762	      2.69385113	     -3.43507955	     -0.45864878	      0.81645103	      0.25165670	    -14.87306108	     -2.41348981	     -0.39162280	     29.21359637	      0.50987344	      0.28643453	      0.00000000	      0.00000000	     21.32746600	      2.91888041	     -7.57222627	      6.07049510	      0.10595013	     -4.03150752	      0.00000000	      0.00000000	    -13.43079980	     -4.42739055	      8.18114962	     -0.18761979	     -4.65057043	     -6.11221561	     47.08596297	     88.73251748	      2.75859378	     12.67813776	    -12.25360929	      0.56029515	    -17.32345050	     41.78364436	     89.23250640	     -7.17397981	      9.97394889
      0.59000000	      1.45453394	      3.30861750	     -3.34602492	     -0.44272001	      0.81700271	      0.24993012	    -14.67579535	     -3.57222703	     -1.45736816	     31.66523773	      0.55266266	     -3.12197051	      0.00000000	      0.00000000	     21.05939120	      3.62392907	     -7.93365899	      8.09230857	      0.14123743	     -4.61961897	      0.00000000	      0.00000000	    -13.35429272	     -5.02878762	      7.88487194	     -0.61834856	     -4.32642549	     -6.24664643	     46.96760810	     88.72719787	      2.65240985	     12.31170235	    -12.43291441	      0.47234643	    -16.97925737	     41.39766913	     89.22002788	     -7.30205560	      9.83302574
      0.60000000	      1.75939447	      3.94760337	     -3.21039265	     -0.42674767	      0.81783308	      0.24809807	    -14.35046819	     -4.79295937	     -2.50698250	     34.29270674	      0.59852064	     -6.69447204	      0.00000000	      0.00000000	     20.68226106	      4.38021720	     -8.01286242	     10.08849657	      0.17607748	     -5.06223882	      0.00000000	      0.00000000	    -13.35913404	     -5.66339783	      7.51145705	     -1.04565027	     -4.02501748	     -6.31217307	     46.76242934	     88.71332193	      2.56220910	     11.97227047	    -12.58219880	      0.35080131	    -16.58327975	     40.98338845	     89.21491593	     -7.36685128	      9.79019399
      0.61000000	      2.09998912	      4.63318411	     -3.02460174	     -0.41074938	      0.81886737	      0.24614705	    -13.89769955	     -6.11531385	     -3.60334096	     37.08009279	      0.64716971	    -10.41614819	      0.00000000	      0.00000000	     20.16676470	      5.22746939	     -7.98180946	     11.94580709	      0.20849367	     -5.31176557	      0.00000000	      0.00000000	    -13.38802342	     -6.32104897	      7.03064530	     -1.47463518	     -3.71840931	     -6.29618038	     46.55299003	     88.70065071	      2.50615935	     11.71672677	    -12.73125985	      0.21306581	    -16.16539891	     40.63022821	     89.21227190	     -7.34508958	      9.84359365
